<svg xmlns="http://www.w3.org/2000/svg" xmlns:xlink="http://www.w3.org/1999/xlink" version="1.1" x="0px" y="0px" viewBox="0 -16.168 100 145.21" enable-background="new 0 -16.168 100 116.168" xml:space="preserve"><path d="M60.438,79.292c0,4.921-1.782,10.691-8.91,10.691c-6.73,0-10.096-5.771-10.096-10.691c0-1.87-0.029-3.716-0.08-5.544H17.393  v2.742h21.277c0.015,0.952,0.021,1.882,0.021,2.802c0,6.604,4.803,13.433,12.837,13.433c7.296,0,11.651-5.021,11.651-13.433  c0-0.923-0.013-1.852-0.039-2.802h21.717v-2.742H60.289C60.384,75.576,60.438,77.423,60.438,79.292z"/><path d="M58.446,63.154c-0.008-1.438-0.058-2.857-0.139-4.264C56.278,23.673,32.223-1.123,30.754-1.115  c-1.172,0.006,11.81,24.598,12.988,60.086c0.047,1.405,0.077,2.825,0.085,4.264c0.019,3.36,2.082,7.222,6.167,8.027V79.9  l-3.277-3.279v3.946l4.647,4.647l4.648-4.647v-3.946L52.734,79.9v-8.56C57.3,70.756,58.466,66.673,58.446,63.154z"/><text x="0" y="115" fill="#000000" font-size="5px" font-weight="bold" font-family="'Helvetica Neue', Helvetica, Arial-Unicode, Arial, Sans-serif">Created by corpus delicti</text><text x="0" y="120" fill="#000000" font-size="5px" font-weight="bold" font-family="'Helvetica Neue', Helvetica, Arial-Unicode, Arial, Sans-serif">from the Noun Project</text></svg>