<svg xmlns="http://www.w3.org/2000/svg" version="1.1" viewBox="-5.0 -10.0 110.0 135.0">
 <path d="m44.699 84.906c-1.5859 0-3.1719-0.30078-4.6719-0.90625l-15.953-5.9062c-0.96484-0.35938-1.9727-0.63672-2.9961-0.82812-1.9805-0.37109-4.0039-0.41016-6.0039-0.11719l-2.7422 0.40234c-0.5625 0.082031-1.082-0.30469-1.168-0.86719-0.082031-0.5625 0.30859-1.082 0.86719-1.168l2.7461-0.40234c2.2266-0.32422 4.4727-0.28125 6.6797 0.12891 1.1367 0.21484 2.2578 0.52344 3.332 0.92187l15.969 5.9141c0.011719 0.003906 0.019532 0.007813 0.03125 0.011719 2.7227 1.1055 5.7969 1.0078 8.4375-0.27344l22.426-10.844c0.58203-0.28125 1.0156-0.76953 1.2227-1.3828 0.20703-0.61328 0.16406-1.2656-0.125-1.8438-0.41016-0.81641-1.2305-1.3242-2.1445-1.3242-0.21484 0-0.43359 0.03125-0.64062 0.089844l-18.793 5.5781c-0.54297 0.16406-1.1172-0.14844-1.2773-0.69141-0.16016-0.54297 0.14844-1.1172 0.69141-1.2773l18.809-5.582c0.40625-0.11328 0.80859-0.16797 1.2109-0.16797 1.6953 0 3.2188 0.94531 3.9805 2.4609 0.53906 1.0742 0.61719 2.293 0.23047 3.4297-0.38672 1.1328-1.1953 2.0469-2.2773 2.5703l-22.422 10.844c-1.707 0.82422-3.5625 1.2422-5.4219 1.2422z" fill-rule="evenodd"/>
 <path d="m47.859 75.164c-0.39844 0-0.80469-0.058593-1.2031-0.18359l-13.934-4.2773c-0.54297-0.16406-0.84766-0.74219-0.67969-1.2852s0.74219-0.84766 1.2852-0.67969l13.938 4.2773c1.0312 0.31641 2.1172-0.23047 2.4766-1.2461 0.078124-0.21484 0.11719-0.4375 0.11719-0.67188 0-0.0625-0.003906-0.13672-0.015625-0.22656-0.066406-0.61328-0.41797-1.1641-0.94531-1.4844l-17.098-6.957c-3.7617-1.5312-7.8867-2.1328-11.93-1.7422l-7.5703 0.86719c-0.5625 0.0625-1.0742-0.33984-1.1367-0.90234s0.33984-1.0742 0.90234-1.1367l7.582-0.87109h0.019531c4.375-0.42578 8.8398 0.22656 12.91 1.8828l17.164 6.9844c0.039062 0.015625 0.082031 0.035156 0.12109 0.058593 1.125 0.64063 1.8789 1.7891 2.0234 3.0742 0.019531 0.16406 0.027343 0.3125 0.027343 0.44922 0 0.47266-0.082031 0.92969-0.23828 1.3633-0.58594 1.6562-2.1406 2.6992-3.8125 2.6992z" fill-rule="evenodd"/>
 <path d="m7.5039 58.812c-0.17969 0-0.32422 0.14453-0.32422 0.32422v18.793c0 0.17969 0.14453 0.32422 0.32422 0.32422h3.3281c0.17969 0 0.32422-0.14453 0.32422-0.32422v-18.793c0-0.17969-0.14453-0.32422-0.32422-0.32422zm3.3281 21.496h-3.3281c-1.3125 0-2.3789-1.0664-2.3789-2.3789v-18.793c0-1.3125 1.0664-2.3789 2.3789-2.3789h3.3281c1.3125 0 2.3789 1.0664 2.3789 2.3789v18.793c0 1.3125-1.0664 2.3789-2.3789 2.3789z" fill-rule="evenodd"/>
 <path d="m29.395 35.637c-1.6953 0-3.2188-0.94141-3.9805-2.457-0.53516-1.0742-0.62109-2.293-0.23047-3.4297 0.38672-1.1328 1.1953-2.0469 2.2773-2.5703l22.422-10.844c3.1562-1.5273 6.8359-1.6484 10.094-0.33203l15.953 5.9062c0.96484 0.35547 1.9727 0.63672 2.9961 0.82812 1.9805 0.37109 4.0039 0.41016 6.0039 0.11719l2.7461-0.40234c0.5625-0.082031 1.082 0.30469 1.168 0.86719 0.082031 0.55859-0.30859 1.082-0.86719 1.1641l-2.7461 0.40625c-2.2266 0.32422-4.4727 0.28125-6.6797-0.12891-1.1406-0.21484-2.2617-0.52344-3.332-0.92188l-15.965-5.9141c-0.011718-0.003906-0.023437-0.007812-0.03125-0.011719-2.7227-1.1055-5.7969-1.0078-8.4375 0.26953l-22.422 10.848c-0.58203 0.28125-1.0156 0.76953-1.2227 1.3828-0.20703 0.61328-0.16406 1.2656 0.125 1.8438 0.41016 0.81641 1.2305 1.3242 2.1445 1.3242 0.21484 0 0.42969-0.027343 0.64062-0.085937l18.793-5.5781c0.54297-0.16406 1.1172 0.14844 1.2773 0.69141 0.16406 0.54297-0.14844 1.1133-0.69141 1.2773l-18.809 5.582c-0.40625 0.11328-0.80859 0.16797-1.2109 0.16797z" fill-rule="evenodd"/>
 <path d="m77.723 41.48c-3.5195 0-7.0352-0.68359-10.297-2.0117l-17.164-6.9844c-0.039063-0.015625-0.082031-0.035156-0.12109-0.058594-1.125-0.64062-1.8789-1.7891-2.0234-3.0742-0.015626-0.16406-0.027344-0.30859-0.027344-0.44922 0-0.47266 0.082031-0.93359 0.23828-1.3672 0.72656-2.0508 2.9297-3.1602 5.0156-2.5156l13.934 4.2773c0.54297 0.16797 0.84766 0.74219 0.67969 1.2812-0.16406 0.54297-0.74219 0.84766-1.2852 0.67969l-13.938-4.2773c-1.0312-0.32031-2.1172 0.22656-2.4805 1.2461-0.078125 0.21484-0.11719 0.4375-0.11719 0.67188 0 0.0625 0.003906 0.13672 0.015625 0.22656 0.066406 0.61328 0.41797 1.1602 0.94531 1.4844l17.098 6.957c3.7617 1.5312 7.8867 2.1328 11.93 1.7422l7.5703-0.87109c0.5625-0.0625 1.0742 0.33984 1.1367 0.90625 0.0625 0.5625-0.33984 1.0742-0.90625 1.1367l-7.582 0.87109h-0.019531c-0.86719 0.082032-1.7383 0.125-2.6133 0.125z" fill-rule="evenodd"/>
 <path d="m89.168 21.742c-0.17969 0-0.32422 0.14453-0.32422 0.32422v18.793c0 0.17969 0.14453 0.32422 0.32422 0.32422h3.3281c0.17969 0 0.32422-0.14453 0.32422-0.32422v-18.793c0-0.17969-0.14453-0.32422-0.32422-0.32422zm3.3281 21.5h-3.3281c-1.3125 0-2.3789-1.0664-2.3789-2.3789v-18.793c0-1.3125 1.0664-2.3789 2.3789-2.3789h3.3281c1.3125 0 2.3789 1.0703 2.3789 2.3789v18.793c0 1.3125-1.0664 2.3789-2.3789 2.3789z" fill-rule="evenodd"/>
 <path d="m45.418 41.48c-1.5117 0-2.9336 0.58984-4.0039 1.6602-2.207 2.207-2.207 5.8008 0 8.0078l9.4727 9.4727 9.4688-9.4727c2.207-2.207 2.207-5.8008 0-8.0078-1.0703-1.0703-2.4922-1.6602-4.0039-1.6602-1.5117 0-2.9336 0.58984-4.0039 1.6602l-0.73828 0.73828c-0.19141 0.19141-0.45312 0.30078-0.72656 0.30078-0.27344 0-0.53516-0.10938-0.72656-0.30078l-0.73828-0.73828c-1.0703-1.0703-2.4922-1.6602-4.0039-1.6602zm5.4688 21.621c-0.27344 0-0.53516-0.10937-0.72656-0.30078l-10.199-10.199c-3.0078-3.0117-3.0078-7.9062 0-10.914 1.457-1.457 3.3945-2.2617 5.457-2.2617s4 0.80469 5.457 2.2617l0.011719 0.011719 0.011719-0.011719c1.457-1.457 3.3945-2.2617 5.457-2.2617s4 0.80469 5.457 2.2617 2.2617 3.3945 2.2617 5.457-0.80469 4-2.2617 5.457l-10.195 10.199c-0.19141 0.19141-0.45703 0.30078-0.72656 0.30078z" fill-rule="evenodd"/>
 <path d="m50.883 56.309c-0.56641 0-1.0273-0.46094-1.0273-1.0273v-8.0352c0-0.56641 0.46094-1.0273 1.0273-1.0273 0.56641 0 1.0273 0.46094 1.0273 1.0273v8.0352c0 0.56641-0.46094 1.0273-1.0273 1.0273z" fill-rule="evenodd"/>
 <path d="m54.902 52.293h-8.0352c-0.56641 0-1.0273-0.46094-1.0273-1.0273s0.46094-1.0273 1.0273-1.0273h8.0352c0.56641 0 1.0273 0.46094 1.0273 1.0273s-0.46094 1.0273-1.0273 1.0273z" fill-rule="evenodd"/>
<text x="0.0" y="117.5" font-size="5.0" font-weight="bold" font-family="Arbeit Regular, Helvetica, Arial-Unicode, Arial, Sans-serif" fill="#000000">Created by Circlon Tech</text><text x="0.0" y="122.5" font-size="5.0" font-weight="bold" font-family="Arbeit Regular, Helvetica, Arial-Unicode, Arial, Sans-serif" fill="#000000">from Noun Project</text></svg>