<svg xmlns="http://www.w3.org/2000/svg" version="1.1" viewBox="-5.0 -10.0 110.0 135.0">
 <path d="m29.699 38.668c-0.57812-1.5898-1.2422-3.4102-0.51953-5.9062 0.80859-2.8008 3.2852-4.9258 4.3867-8.3945 0.27344-0.85547 0.5-1.7383 0.69141-2.6328 0.015626-0.074219-0.011718-0.14453-0.074218-0.18359-0.0625-0.042969-0.13672-0.042969-0.19922 0-9.418 6.3477-14.039 17.457-12.305 28.332 0.011718 0.082032 0.078124 0.14453 0.16016 0.14844 0.082031 0.007812 0.15625-0.042969 0.18359-0.12109 2.9805-9.2422 6.9531-6.7266 8.0195-8.793 0.32422-0.625 0.011719-1.4766-0.34375-2.4492zm-2.5742 35.883c-0.51953 0.51953-1.3633 0.51953-1.8867 0-1.1875-1.1875-3.3516-3.5625-4.3945-4.8086-5.9062-7.043-8.8594-15.719-8.8594-24.398 0-20.992 17.02-38.012 38.016-38.012s38.016 17.02 38.016 38.016c0 15.082-8.9336 28.805-22.828 34.855-0.054688 0.023437-0.11719 0.019531-0.16797-0.011719s-0.082031-0.085937-0.082031-0.14453c-0.019531-0.8125-0.10156-1.6055-0.24609-2.3789-0.015625-0.082031 0.027344-0.16016 0.10156-0.19531 3.7852-1.7422 7.1992-4.125 10.203-7.1289 13.805-13.805 13.805-36.184 0-49.988-13.805-13.805-36.184-13.805-49.988 0-13.031 13.031-13.812 33.816-2.0508 47.758 0.43359 0.51172 2.4297 2.7461 3.1055 3.4766 0.035156 0.035156 0.078125 0.054687 0.12891 0.054687 0.050782 0 0.09375-0.015625 0.12891-0.050781l10.562-10.574c0.51953-0.51953 0.51953-1.3633 0-1.8867-0.51953-0.51953-1.3633-0.51953-1.8867 0l-5.7422 5.7422c-0.035156 0.035156-0.078125 0.054688-0.12891 0.050781-0.050781 0-0.09375-0.019531-0.12891-0.054687-2.457-2.6406-4.3242-5.6328-5.6016-8.8047-0.011719-0.03125-0.015625-0.058594-0.011719-0.089844 0.10156-0.74609 0.21484-1.4531 0.35156-2.1172 0.16016-0.79297 0.35547-1.5859 0.58984-2.3789 1.6875-5.7344 3.5039-6.3242 4.9609-6.7969 1.2305-0.39844 2.2969-0.74609 3.125-2.3516 1.6211-3.1445-1.6758-5.3672-0.67188-8.832 0.63281-2.1914 3.1445-4.4922 4.3672-8.332 0.57031-1.793 0.94531-3.6211 1.2227-5.4727 0.007813-0.058593 0.042969-0.10547 0.097656-0.13281 14.559-7.1055 32.391-0.70312 38.91 14.402 0.035156 0.074218 0.007812 0.16406-0.054688 0.21094-1.3477 1.0195-2.5859 2.2109-3.6172 3.5234-5.8047 7.3672-1.9961 9.5234-3.9141 15.105-0.86328 2.5078-3.1875 5.5859-5.5078 8.6523-1.6758 2.2148-3.3477 4.4258-4.5586 6.5391-0.027344 0.042968-0.066406 0.074218-0.11328 0.085937-0.050781 0.011719-0.097656 0.003907-0.14062-0.027343-6.5508-4.4805-15.465-3.0273-20.285 3.2617-0.050781 0.066406-0.14062 0.089844-0.21484 0.054688-1.6289-0.75781-3.1953-1.6719-4.668-2.7344-0.070313-0.050781-0.16797-0.042969-0.23047 0.019531zm35.148 5.8477c0-6.7773-5.4961-12.273-12.273-12.273s-12.273 5.4961-12.273 12.273c0 6.7773 5.4961 12.273 12.273 12.273 6.7773-0.003906 12.273-5.4961 12.273-12.273zm-9.2266-6.7969c0-0.72266-0.58984-1.3125-1.3125-1.3125h-3.4727c-0.36328 0-0.69141 0.14844-0.92578 0.38672-0.23828 0.23828-0.38672 0.56641-0.38672 0.92578v3.5703c0 0.097656-0.082031 0.17969-0.17969 0.17969h-3.5703c-0.72266 0-1.3125 0.58984-1.3125 1.3125v3.4727c0 0.36328 0.14844 0.69141 0.38672 0.92578 0.23828 0.23828 0.56641 0.38672 0.92578 0.38672h3.5703c0.097657 0 0.17969 0.082031 0.17969 0.17969v3.5703c0 0.72266 0.58984 1.3125 1.3125 1.3125h3.4727c0.36328 0 0.69141-0.14844 0.92578-0.38672 0.23828-0.23828 0.38672-0.56641 0.38672-0.92578v-3.5703c0-0.097656 0.082031-0.17969 0.17969-0.17969h3.5703c0.72266 0 1.3125-0.58984 1.3125-1.3125v-3.4727c0-0.72266-0.58984-1.3125-1.3125-1.3125h-3.5703c-0.097656 0-0.17969-0.082031-0.17969-0.17969zm18.91-26.062c0.089844 1.7383 0.1875 3.5664-0.69141 6.1289-1.6602 4.8281-7.5117 10.824-10.27 15.637-0.11719 0.20312-0.21094 0.37109-0.28516 0.49609-0.039063 0.070313-0.027344 0.15234 0.027343 0.21094 0.39844 0.41406 0.77344 0.84766 1.125 1.3047 0.050781 0.066406 0.14062 0.089844 0.21484 0.054688 13.039-6.0508 19.496-20.805 15.352-34.406-0.019532-0.058594-0.058594-0.10156-0.12109-0.11719-0.058594-0.019531-0.11719-0.003906-0.16406 0.035156-0.88281 0.73828-1.668 1.5469-2.3945 2.4688-3.0234 3.8359-2.9141 5.9219-2.793 8.1875zm-31.508-14.023 13.699 2.7383c0.058593 0.011719 0.11719-0.003906 0.16016-0.046875 4.0195-3.9766 7.2578-5.8945 9.2539-6.2031 1.7617-0.27344 2.7227 0.6875 2.4492 2.4492-0.30859 1.9961-2.2266 5.2383-6.1953 9.2461-0.042968 0.042969-0.058594 0.10156-0.046875 0.16016l2.7461 13.723c0.875 4.3711-2.5312 5.9688-4.9883 1.875l-4.8242-8.0391c-0.027344-0.046875-0.070313-0.074219-0.12109-0.082031-0.050781-0.007813-0.10156 0.003906-0.14453 0.035156l-6.082 4.8633c-0.039063 0.03125-0.0625 0.074219-0.066407 0.125l-0.56641 7.3516c-0.22266 2.8633-2.3203 1.7773-3.1914-0.37109l-2.2266-5.5195c-0.019532-0.046874-0.050782-0.078124-0.097657-0.097656l-5.5195-2.2266c-2.1523-0.86719-3.2383-2.9688-0.37109-3.1914l7.3516-0.56641c0.050781-0.003906 0.09375-0.027343 0.125-0.066406l4.8633-6.082c0.035156-0.042969 0.046875-0.089844 0.035156-0.14453-0.007812-0.050781-0.039062-0.09375-0.082031-0.12109l-8.0391-4.8242c-4.0898-2.4531-2.4922-5.8594 1.8789-4.9844z" fill-rule="evenodd"/>
<text x="0.0" y="117.5" font-size="5.0" font-weight="bold" font-family="Arbeit Regular, Helvetica, Arial-Unicode, Arial, Sans-serif" fill="#000000">Created by gravisio</text><text x="0.0" y="122.5" font-size="5.0" font-weight="bold" font-family="Arbeit Regular, Helvetica, Arial-Unicode, Arial, Sans-serif" fill="#000000">from Noun Project</text></svg>