<svg xmlns="http://www.w3.org/2000/svg" version="1.1" viewBox="-5.0 -10.0 110.0 135.0">
 <g>
  <path d="m18.398 50.5c-0.60156-0.60156-1.6992-0.60156-2.3008 0l-3.6992 3.6992v-4.3008c0-20.801 17-37.801 37.801-37.801 12.5 0 24.199 6.1992 31.199 16.5 0.5 0.69922 1.5 0.89844 2.3008 0.39844 0.69922-0.5 0.89844-1.5 0.39844-2.3008-7.7969-11.094-20.398-17.797-33.996-17.797-22.703 0-41.102 18.402-41.102 41v4.3008l-3.6992-3.6992c-0.60156-0.60156-1.6992-0.60156-2.3008 0s-0.60156 1.6992 0 2.3008l6.5 6.5c0.30078 0.30078 0.69922 0.5 1.1992 0.5 0.39844 0 0.80078-0.19922 1.1992-0.5l6.5-6.5c0.60156-0.60156 0.60156-1.6992 0-2.3008z"/>
  <path d="m97 47.199-6.5-6.5c-0.60156-0.60156-1.6992-0.60156-2.3008 0l-6.5 6.5c-0.60156 0.60156-0.60156 1.6992 0 2.3008 0.30078 0.30078 0.69922 0.5 1.1992 0.5 0.39844 0 0.80078-0.19922 1.1992-0.5l3.6992-3.6992v4.3008c0 20.801-17 37.801-37.801 37.801-12.5 0-24.199-6.1992-31.199-16.5-0.5-0.69922-1.5-0.89844-2.3008-0.39844-0.69922 0.5-0.89844 1.5-0.39844 2.3008 7.6992 11.199 20.301 17.898 33.898 17.898 22.602 0 41.102-18.398 41.102-41v-4.3008l3.6992 3.6992c0.60156 0.60156 1.6992 0.60156 2.3008 0 0.60156-0.70312 0.60156-1.8008-0.097656-2.4023z"/>
  <path d="m64.301 43.602h-7.8984v-7.8984c0-0.89844-0.69922-1.6016-1.6016-1.6016h-9.5c-0.89844 0-1.6016 0.69922-1.6016 1.6016v7.8984h-7.8984c-0.89844 0-1.6016 0.69922-1.6016 1.6016v9.5c0 0.89844 0.69922 1.6016 1.6016 1.6016h7.8984v7.8984c0 0.89844 0.69922 1.6016 1.6016 1.6016h9.5c0.89844 0 1.6016-0.69922 1.6016-1.6016v-7.8984h7.8984c0.89844 0 1.6016-0.69922 1.6016-1.6016v-9.5c0.097656-0.90234-0.70312-1.6016-1.6016-1.6016zm-1.6016 9.5h-7.8984c-0.89844 0-1.6016 0.69922-1.6016 1.6016v7.8984h-6.3008v-7.8984c0-0.89844-0.69922-1.6016-1.6016-1.6016h-7.8984v-6.3008h7.8984c0.89844 0 1.6016-0.69922 1.6016-1.6016v-7.8984h6.3008v7.8984c0 0.89844 0.69922 1.6016 1.6016 1.6016h7.8984z"/>
  <path d="m50 22.602c-15.102 0-27.398 12.301-27.398 27.398 0 15.102 12.297 27.398 27.398 27.398s27.398-12.297 27.398-27.398-12.297-27.398-27.398-27.398zm0 51.598c-13.301 0-24.199-10.801-24.199-24.199 0-13.301 10.801-24.199 24.199-24.199 13.301 0 24.199 10.801 24.199 24.199 0 13.301-10.898 24.199-24.199 24.199z"/>
 </g>
<text x="0.0" y="117.5" font-size="5.0" font-weight="bold" font-family="Arbeit Regular, Helvetica, Arial-Unicode, Arial, Sans-serif" fill="#000000">Created by Adrien Coquet</text><text x="0.0" y="122.5" font-size="5.0" font-weight="bold" font-family="Arbeit Regular, Helvetica, Arial-Unicode, Arial, Sans-serif" fill="#000000">from Noun Project</text></svg>