<svg xmlns="http://www.w3.org/2000/svg" version="1.1" viewBox="-5.0 -10.0 110.0 135.0">
 <path d="m82.488 41.535h-10.234v3.3672h10.234c0.45703 0 0.82812 0.36719 0.82812 0.82422 0 0.35156-0.22656 0.66797-0.57031 0.78125l-4.793 1.6016v26.664c0 1.8477-1.5039 3.3516-3.3516 3.3516l-49.199-0.003906c-1.8516 0-3.3516-1.5039-3.3516-3.3516v-26.66l-4.793-1.6016c-0.33594-0.11328-0.57031-0.42969-0.57031-0.78125 0-0.45703 0.37109-0.82422 0.82812-0.82422h34.664c-1.8164 3.2109-4.5234 5.8789-7.875 7.5977l-15.324 7.8672c-0.89453 0.46094-1.4531 1.3789-1.4531 2.3828 0 1.4766 1.1953 2.6758 2.6758 2.6758h3.8008c2.5977 0 5.1836-0.33594 7.6953-0.99609l7.8828-2.0781c1.7188-0.45312 3.4883-0.67969 5.2656-0.67969 1.0781 0 2.1406 0.22266 3.1328 0.64844l2.8398 1.2305c1.5117 0.65625 3.1445 0.99219 4.7891 0.99219h0.24219c3.332 0 6.1445-2.4766 6.5703-5.7812 0.19531-1.5469-0.15625-3.1172-1.0039-4.4258l-2.5273-3.918c-1.0195-1.5781-1.4258-3.4727-1.1484-5.332l1.668-11.152h-13.926l-1.2656 5.7227c-0.14062 0.64062-0.32031 1.2656-0.52734 1.8828l-36.18-0.003906c-2.3125 0-4.1953 1.8828-4.1953 4.1953 0 1.8047 1.1523 3.4062 2.8672 3.9766l2.4922 0.83203v24.234c0 3.707 3.0156 6.7188 6.7227 6.7188h49.195c3.7109 0 6.7227-3.0156 6.7227-6.7188v-24.234l2.4922-0.83203c1.7148-0.57422 2.8672-2.1719 2.8672-3.9766 0-2.3125-1.8828-4.1953-4.1953-4.1953z"/>
 <path d="m38.969 36.93h3.3672c0-2.6523-1.0547-4.0586-1.8984-5.1914-0.71094-0.95703-1.2266-1.6445-1.2266-3.1797 0-1.5391 0.51562-2.2227 1.2266-3.1797 0.84766-1.1328 1.8984-2.5391 1.8984-5.1914h-3.3672c0 1.5312-0.51562 2.2227-1.2266 3.1797-0.84766 1.1328-1.8984 2.5391-1.8984 5.1914s1.0547 4.0625 1.8984 5.1953c0.71094 0.95703 1.2266 1.6445 1.2266 3.1797z"/>
 <path d="m27.406 36.93h3.3672c0-2.6523-1.0547-4.0586-1.8984-5.1914-0.71094-0.95703-1.2266-1.6445-1.2266-3.1797 0-1.5391 0.51562-2.2227 1.2266-3.1797 0.84766-1.1328 1.8984-2.5391 1.8984-5.1914h-3.3672c0 1.5312-0.51562 2.2227-1.2266 3.1797-0.84766 1.1328-1.8984 2.5391-1.8984 5.1914s1.0547 4.0625 1.8984 5.1953c0.71094 0.95703 1.2266 1.6445 1.2266 3.1797z"/>
<text x="0.0" y="117.5" font-size="5.0" font-weight="bold" font-family="Arbeit Regular, Helvetica, Arial-Unicode, Arial, Sans-serif" fill="#000000">Created by IGraphics</text><text x="0.0" y="122.5" font-size="5.0" font-weight="bold" font-family="Arbeit Regular, Helvetica, Arial-Unicode, Arial, Sans-serif" fill="#000000">from Noun Project</text></svg>