<svg xmlns="http://www.w3.org/2000/svg" version="1.1" viewBox="-5.0 -10.0 110.0 135.0">
 <path d="m60.91 58.195c0 1.6797 0.38281 3.0391 1.2031 4.5195l4.7773 8.6211c0.027344 0.050781 0.070313 0.082031 0.125 0.089843 0.054687 0.007813 0.10547-0.003906 0.14844-0.042969 11.109-9.9531 22.508-25.625 22.508-40.652h0.003906c0-12.18-9.8828-22.074-22.078-22.074-6.4102 0-12.461 2.7734-16.598 7.5195-0.52734 0.60547-1.4727 0.61328-2.0039 0.007813-8.375-9.5625-23.156-10.109-32.207-1.0586-3.9922 3.9961-6.4648 9.5117-6.4648 15.609 0 15.027 11.402 30.699 22.508 40.652 0.042969 0.039062 0.09375 0.050781 0.14844 0.042969 0.054687-0.007813 0.097656-0.039063 0.125-0.089844l4.7773-8.6211c0.82031-1.4805 1.2031-2.8398 1.2031-4.5195v-9.668c0-0.99219-0.33594-1.7344-0.99219-2.5078l-16.117-18.988c-1.8984-2.2383-0.92578-5.2305 1.8125-6.5117 2.457-1.1484 5.8359-0.69531 7.5742 1.3555l10.48 12.348c0.042969 0.050782 0.10547 0.070313 0.16797 0.058594 0.066406-0.011718 0.11328-0.058594 0.13281-0.12109 1.8672-5.7773 9.2852-7.6758 13.684-3.2812 0.91016 0.91016 1.6055 2.0273 2.0156 3.2812 0.019531 0.0625 0.070312 0.10547 0.13281 0.12109 0.066407 0.011719 0.12891-0.007812 0.16797-0.058594l10.48-12.348c2.7422-3.2305 9.1953-2.3438 10.242 1.6211 0.33203 1.25-0.003907 2.5352-0.85547 3.5391l-16.109 18.98c-0.65625 0.77344-0.99219 1.5195-0.99219 2.5078zm-3.6484 20.574c0.046875 0.082031 0.023437 0.1875-0.058594 0.23828-1.1953 0.76563-2.4141 1.4961-3.6602 2.1797-2.2812 1.2539-4.8164 1.2539-7.0977 0-1.2461-0.68359-2.4609-1.4141-3.6602-2.1797-0.082031-0.050781-0.10547-0.15625-0.058594-0.23828l6.4609-11.105c0.21875-0.37891 1.3867-0.37891 1.6055 0zm-1.4297-36.219c1.0977-1.0977 1.8906-2.5078 2.2305-4.082 0.007812-0.03125 0.019531-0.054688 0.039062-0.078125l12.562-14.793c0.42578-0.50391 1.1289-0.83594 1.918-0.96875 2.4219-0.41016 4.6289 1.2461 3.4023 2.6914l-16.113 18.98c-1.0547 1.2422-1.6289 2.6211-1.6289 4.2266v9.668c0 2.1211 0.50781 3.9336 1.5469 5.8125l13.52 24.398c0.53516 0.96484-0.13281 1.8828-1.0547 2.3945-1.7695 0.98047-4.582 0.55859-5.4922-1.0039l-13.66-23.469c-1.2578-2.1641-4.9531-2.1641-6.2109 0l-13.66 23.469c-0.35156 0.60156-1.0352 1.0664-1.8594 1.3203-2.7773 0.85937-5.6484-0.97656-4.6875-2.7109l13.52-24.402c1.0391-1.8789 1.5469-3.6953 1.5469-5.8125v-9.668c0-1.6055-0.57422-2.9883-1.6289-4.2266l-16.113-18.98c-0.28906-0.33984-0.42578-0.71875-0.3125-1.1406 0.46094-1.7461 4.2109-2.2617 5.6367-0.58203l12.562 14.793c0.019531 0.023437 0.03125 0.046875 0.039063 0.078125 0.33984 1.5742 1.1328 2.9844 2.2305 4.082 3.2227 3.2266 8.4453 3.2266 11.668 0.003906zm-5.8359-0.25c-3.0859 0-5.582-2.5-5.582-5.582 0-3.0859 2.5-5.582 5.582-5.582 3.0859 0 5.582 2.5 5.582 5.582 0.003906 3.082-2.4961 5.582-5.582 5.582z" fill-rule="evenodd"/>
<text x="0.0" y="117.5" font-size="5.0" font-weight="bold" font-family="Arbeit Regular, Helvetica, Arial-Unicode, Arial, Sans-serif" fill="#000000">Created by gravisio</text><text x="0.0" y="122.5" font-size="5.0" font-weight="bold" font-family="Arbeit Regular, Helvetica, Arial-Unicode, Arial, Sans-serif" fill="#000000">from Noun Project</text></svg>